<?xml version="1.0" standalone="no"?>
<!DOCTYPE svg PUBLIC "-//W3C//DTD SVG 20010904//EN"
 "http://www.w3.org/TR/2001/REC-SVG-20010904/DTD/svg10.dtd">
<svg version="1.0" xmlns="http://www.w3.org/2000/svg"
 width="1024.000000pt" height="1024.000000pt" viewBox="0 0 1024.000000 1024.000000"
 preserveAspectRatio="xMidYMid meet">

<g transform="translate(0.000000,1024.000000) scale(0.100000,-0.100000)"
fill="#000000" stroke="none">
<path d="M4875 8809 c-349 -33 -714 -161 -1015 -356 -265 -172 -562 -481 -720
-748 -191 -325 -296 -660 -330 -1055 -14 -170 -13 -250 4 -250 8 0 63 12 122
26 60 14 187 34 284 46 147 17 203 19 350 12 96 -4 196 -8 222 -8 25 -1 45 -4
43 -7 -2 -3 31 -11 73 -18 204 -34 442 -108 630 -196 92 -44 125 -53 55 -16
-31 16 -34 20 -16 21 12 0 25 -4 28 -10 3 -5 22 -10 41 -10 19 0 34 -5 34 -10
0 -6 12 -3 26 7 26 17 26 17 20 -4 -4 -12 -2 -24 4 -28 6 -3 8 -10 5 -15 -3
-5 -1 -11 5 -15 5 -3 10 -2 10 3 0 5 7 9 15 9 11 0 12 -4 4 -14 -6 -7 -8 -13
-3 -13 12 0 41 20 30 20 -5 0 1 12 15 26 l24 26 -22 -6 c-14 -5 -23 -3 -23 3
0 14 37 14 46 0 3 -6 0 -15 -7 -20 -18 -11 -6 -21 15 -13 9 3 13 11 9 17 -3 6
-1 7 6 3 9 -6 9 -11 1 -21 -8 -9 -5 -14 10 -18 14 -3 20 -13 20 -32 0 -20 4
-25 18 -21 22 7 47 -8 38 -23 -4 -6 -2 -11 3 -11 6 0 11 11 11 25 0 19 4 23
17 18 11 -4 14 -3 9 5 -4 7 -17 10 -29 6 -18 -4 -23 -1 -24 17 -1 12 -8 26
-15 32 -9 6 -8 7 5 3 9 -3 17 -1 17 5 0 6 4 8 9 5 5 -3 15 2 22 11 11 13 11
17 2 20 -7 3 -13 9 -13 15 0 7 5 7 13 -1 8 -6 17 -8 20 -4 4 3 7 1 7 -5 0 -6
-7 -18 -16 -27 -14 -14 -15 -20 -4 -41 8 -13 17 -24 22 -24 12 0 10 14 -4 28
-9 9 -7 12 11 12 18 0 22 -4 18 -20 -7 -27 28 -48 38 -22 6 15 8 14 16 -7 12
-30 4 -39 -21 -23 -24 15 -60 16 -60 2 0 -6 6 -10 13 -9 30 4 44 -3 60 -30 9
-15 14 -30 12 -33 -3 -3 2 -5 10 -5 11 0 12 4 3 14 -8 11 -7 12 6 7 9 -3 16
-1 16 5 0 6 15 -4 34 -22 23 -22 29 -34 20 -37 -9 -3 -5 -9 11 -17 18 -8 27
-8 32 -1 3 6 1 8 -5 4 -6 -3 -13 -2 -16 3 -3 5 1 11 9 15 8 3 12 12 9 21 -3 8
-11 12 -16 9 -6 -4 -5 -10 3 -15 10 -6 10 -9 2 -9 -19 0 -24 17 -8 30 8 7 15
9 15 5 0 -4 7 -2 15 5 9 7 18 10 22 6 3 -3 0 -6 -8 -6 -11 0 -11 -2 1 -10 8
-5 10 -10 5 -10 -6 0 -11 -10 -12 -21 -2 -21 -2 -21 20 2 12 13 21 28 19 33
-2 4 5 6 14 2 15 -6 15 -4 3 10 -18 22 -20 44 -3 44 17 0 19 -20 2 -20 -8 0
-7 -4 3 -10 8 -5 24 -7 35 -6 10 2 22 -2 26 -8 4 -6 6 4 4 23 -3 26 0 35 15
38 10 3 16 9 13 14 -3 5 -2 9 3 8 26 -4 34 2 28 24 -5 18 -4 19 5 5 11 -18 3
-51 -11 -42 -5 3 -12 -2 -15 -10 -3 -9 -10 -13 -15 -10 -5 3 -9 0 -9 -5 0 -14
2 -14 36 2 16 6 29 18 30 25 3 34 4 37 12 25 6 -9 14 -9 37 1 109 48 135 60
135 66 0 3 12 7 28 8 19 1 6 -9 -48 -37 -41 -21 -79 -36 -85 -33 -5 3 -7 2 -3
-3 12 -13 -164 -126 -187 -119 -14 4 -16 3 -6 -4 10 -8 8 -13 -10 -25 -12 -9
-27 -13 -32 -10 -6 3 -7 1 -3 -5 3 -6 -19 -30 -52 -55 -32 -25 -64 -53 -72
-64 -19 -23 -19 -23 116 84 284 224 642 391 1000 467 349 73 692 70 1057 -11
64 -14 120 -23 124 -20 11 12 -16 390 -37 507 -56 319 -173 610 -358 890 -294
445 -731 768 -1245 920 -286 84 -630 117 -932 89z m2512 -1871 c-3 -7 -5 -2
-5 12 0 14 2 19 5 13 2 -7 2 -19 0 -25z m10 -60 c-3 -7 -5 -2 -5 12 0 14 2 19
5 13 2 -7 2 -19 0 -25z m20 -150 c-3 -8 -6 -5 -6 6 -1 11 2 17 5 13 3 -3 4
-12 1 -19z m-4580 -30 c-3 -8 -6 -5 -6 6 -1 11 2 17 5 13 3 -3 4 -12 1 -19z
m-7 -125 c-2 -158 -3 -152 23 -147 20 4 21 4 2 -5 -30 -14 -32 -13 -39 16 -7
26 3 233 11 233 2 0 4 -44 3 -97z m4597 -5 c-3 -7 -5 -2 -5 12 0 14 2 19 5 13
2 -7 2 -19 0 -25z m-4040 -64 c-3 -3 -12 -4 -19 -1 -8 3 -5 6 6 6 11 1 17 -2
13 -5z m201 -1 c-10 -2 -26 -2 -35 0 -10 3 -2 5 17 5 19 0 27 -2 18 -5z m-325
-10 c-7 -2 -19 -2 -25 0 -7 3 -2 5 12 5 14 0 19 -2 13 -5z m60 0 c-7 -2 -21
-2 -30 0 -10 3 -4 5 12 5 17 0 24 -2 18 -5z m3264 1 c-3 -3 -12 -4 -19 -1 -8
3 -5 6 6 6 11 1 17 -2 13 -5z m840 -26 c-3 -7 -5 -2 -5 12 0 14 2 19 5 13 2
-7 2 -19 0 -25z m-4322 1 c-64 -12 -88 -11 -74 4 7 8 30 11 63 8 l51 -4 -40
-8z m92 15 c-3 -3 -12 -4 -19 -1 -8 3 -5 6 6 6 11 1 17 -2 13 -5z m773 -20
c19 -3 37 -8 39 -10 9 -8 -46 -2 -104 12 -52 12 -54 13 -15 9 25 -3 61 -8 80
-11z m2370 6 c0 -5 -4 -10 -10 -10 -5 0 -10 5 -10 10 0 6 5 10 10 10 6 0 10
-4 10 -10z m73 3 c-13 -2 -33 -2 -45 0 -13 2 -3 4 22 4 25 0 35 -2 23 -4z
m787 -3 c0 -6 -19 -7 -47 -3 -65 8 -67 13 -5 13 29 0 52 -4 52 -10z m100 -27
c9 -9 -65 9 -74 18 -5 4 8 3 30 -2 21 -6 41 -13 44 -16z m-4335 1 c-27 -7 -57
-13 -65 -13 -24 2 62 27 90 27 15 0 5 -5 -25 -14z m4395 -4 c0 -5 -8 -10 -17
-10 -15 0 -16 2 -3 10 19 12 20 12 20 0z m-3277 -7 c-7 -2 -19 -2 -25 0 -7 3
-2 5 12 5 14 0 19 -2 13 -5z m2127 3 c0 -2 -11 -6 -25 -8 -13 -3 -22 -1 -19 3
5 9 44 13 44 5z m-2026 -27 c5 -4 -8 -3 -30 2 -21 6 -41 13 -44 16 -9 9 65 -9
74 -18z m72 -19 c5 -5 26 -12 46 -14 38 -5 103 -34 95 -42 -2 -3 -20 2 -38 9
-19 8 -63 24 -99 35 -41 13 -56 21 -39 21 14 1 29 -3 35 -9z m1791 3 c-2 -2
-13 -5 -23 -8 -11 -2 -36 -10 -56 -19 -45 -19 -45 -19 -45 -2 0 7 7 12 16 10
9 -3 27 2 41 9 22 12 77 21 67 10z m-202 -73 c-3 -5 -12 -10 -18 -10 -7 0 -6
4 3 10 19 12 23 12 15 0z m-1340 -16 c8 -9 22 -14 29 -11 8 3 17 -1 20 -10 9
-24 1 -27 -31 -10 -15 8 -44 22 -63 30 l-35 16 32 0 c17 1 39 -6 48 -15z m328
-47 c-3 -4 -10 -4 -16 2 -7 5 -15 9 -19 8 -3 -1 -10 1 -14 6 -4 4 0 7 10 7 11
0 15 5 10 13 -4 6 2 3 13 -8 11 -11 18 -24 16 -28z m222 33 c-3 -5 -12 -10
-18 -10 -7 0 -6 4 3 10 19 12 23 12 15 0z m735 6 c0 -2 -7 -6 -15 -10 -8 -3
-15 -1 -15 4 0 6 7 10 15 10 8 0 15 -2 15 -4z m-83 -38 c-7 -4 -16 -8 -22 -8
-5 0 -3 5 5 10 10 6 11 10 3 10 -7 0 -13 5 -13 10 0 6 8 5 20 -2 14 -9 16 -14
7 -20z m-802 2 c3 -6 -1 -7 -9 -4 -18 7 -21 14 -7 14 6 0 13 -4 16 -10z m234
-64 c0 -6 -3 -5 -6 2 -2 6 -9 10 -14 6 -5 -3 -12 2 -15 10 -3 9 -9 14 -13 11
-4 -2 -8 2 -8 10 0 9 8 7 29 -8 15 -11 28 -26 27 -31z m-219 31 c0 -5 7 -4 15
3 10 9 15 9 15 1 0 -11 -12 -15 -42 -12 -22 3 -24 -25 -3 -37 10 -5 13 -15 9
-26 -6 -15 -9 -13 -20 13 -17 41 -14 67 8 67 10 0 18 -4 18 -9z m152 -21 c4
-19 1 -22 -14 -18 -10 2 -18 9 -18 14 0 5 5 6 10 3 6 -3 10 1 10 9 0 24 7 19
12 -8z m-42 4 c0 -5 -2 -10 -4 -10 -3 0 -8 5 -11 10 -3 6 -1 10 4 10 6 0 11
-4 11 -10z m193 -7 c-3 -7 -6 -13 -8 -13 -2 0 -5 6 -8 13 -3 8 1 14 8 14 7 0
11 -6 8 -14z m-85 -44 c-6 -4 -19 -2 -29 4 -12 8 -14 14 -7 18 6 4 19 2 29 -4
12 -8 14 -14 7 -18z m-78 11 c0 -5 -5 -10 -11 -10 -5 0 -7 5 -4 10 3 6 8 10
11 10 2 0 4 -4 4 -10z m125 -11 c-10 -15 -25 -10 -19 6 4 8 10 12 15 9 5 -3 7
-10 4 -15z m30 11 c3 -5 1 -10 -4 -10 -6 0 -11 5 -11 10 0 6 2 10 4 10 3 0 8
-4 11 -10z m60 0 c-3 -5 -12 -10 -18 -10 -7 0 -6 4 3 10 19 12 23 12 15 0z
m90 -9 c3 -5 2 -12 -3 -15 -5 -3 -9 1 -9 9 0 17 3 19 12 6z m-81 -16 c-4 -8
-13 -15 -22 -15 -13 0 -12 3 4 15 24 18 25 18 18 0z m-160 -11 c23 -9 20 -23
-4 -17 -11 3 -20 9 -20 14 0 11 3 11 24 3z m106 -14 c0 -5 -7 -7 -15 -4 -8 4
-15 8 -15 10 0 2 7 4 15 4 8 0 15 -4 15 -10z m-20 -22 c0 -6 7 -7 16 -4 8 3
12 2 9 -4 -3 -6 -15 -10 -26 -10 -10 0 -19 -5 -19 -12 0 -6 -3 -8 -6 -5 -4 4
-1 14 7 24 12 15 12 16 -3 10 -17 -6 -24 3 -12 16 8 8 34 -3 34 -15z m-80 -1
c0 -5 6 -4 14 2 12 10 15 6 21 -19 4 -17 4 -34 1 -37 -3 -4 -6 3 -6 15 0 14
-7 22 -17 23 -10 1 -22 2 -28 4 -5 1 -19 3 -30 4 -13 1 -16 4 -8 9 17 11 53
10 53 -1z m215 3 c3 -5 2 -10 -4 -10 -5 0 -18 -3 -28 -7 -16 -6 -16 -5 -4 10
15 19 27 22 36 7z"/>
<path d="M3221 6340 c-103 -10 -305 -45 -363 -62 -45 -13 -44 -9 -18 -159 42
-232 104 -424 205 -634 60 -124 134 -247 145 -240 5 3 12 0 16 -6 4 -8 3 -9
-4 -5 -7 4 -12 4 -12 0 0 -21 187 -273 203 -274 5 0 -6 18 -25 40 -51 61 -147
204 -142 210 6 5 43 -40 44 -53 0 -19 32 -39 52 -33 13 3 29 -1 39 -10 9 -8
26 -16 37 -17 16 -1 18 -4 11 -14 -8 -9 -5 -11 9 -10 18 1 26 27 12 37 -4 3
-2 11 6 18 12 10 14 10 14 -3 0 -8 5 -15 11 -15 5 0 7 4 4 10 -3 6 1 7 10 4
13 -5 13 -9 3 -22 -11 -13 -7 -12 20 2 18 9 30 21 27 26 -3 5 10 6 29 3 24 -4
40 -1 51 10 14 14 14 17 -2 26 -16 9 -15 10 5 8 14 -1 22 -8 22 -19 0 -10 4
-18 9 -18 4 0 7 11 5 26 -2 19 0 23 11 14 7 -6 21 -7 30 -3 13 4 16 3 11 -5
-9 -15 -7 -15 32 -1 18 6 29 15 26 20 -3 5 3 9 13 10 10 0 13 3 6 6 -15 5 -18
23 -5 23 5 0 14 -11 20 -25 10 -21 17 -24 50 -22 30 2 38 6 40 22 1 12 -2 15
-6 8 -4 -7 -13 -9 -21 -4 -9 6 -7 10 8 14 21 5 48 -23 35 -36 -8 -8 19 -3 34
6 6 5 17 5 22 2 6 -3 10 -2 10 3 0 13 30 11 30 -2 0 -6 5 -3 11 7 11 20 49 23
49 5 1 -9 5 -8 13 3 12 16 42 15 31 -2 -3 -5 2 -9 10 -9 9 0 16 7 16 15 0 10
9 15 28 14 23 -2 24 -2 5 -6 -13 -2 -23 -9 -23 -14 0 -11 -2 -11 37 0 18 5 33
6 35 1 2 -5 15 -6 30 -3 15 3 25 9 22 14 -3 5 2 6 11 3 11 -5 13 -10 5 -19 -8
-10 -8 -15 1 -21 8 -4 9 -3 5 4 -5 8 0 12 13 12 12 0 21 -5 21 -11 0 -5 5 -7
11 -3 8 4 7 9 -2 15 -11 7 -11 9 -1 9 7 0 10 5 6 12 -4 7 -3 8 5 4 6 -4 9 -11
6 -16 -3 -5 3 -14 14 -20 13 -7 22 -7 26 0 3 5 12 10 18 10 7 0 6 -4 -3 -10
-13 -8 -12 -10 3 -10 9 0 17 -6 18 -12 0 -7 4 -3 9 10 11 26 23 28 43 8 9 -10
18 -11 24 -5 6 6 10 4 10 -6 0 -8 -7 -15 -16 -16 -12 0 -10 -3 4 -8 12 -5 25
-4 33 2 9 7 17 5 27 -9 13 -18 13 -17 11 9 -2 15 1 30 5 33 5 3 9 -1 9 -8 0
-7 9 2 20 20 27 43 32 41 10 -5 -10 -21 -27 -59 -39 -85 -12 -27 -27 -48 -34
-48 -8 0 -8 -3 2 -9 10 -7 26 17 67 99 98 200 212 370 356 532 37 42 68 78 68
81 0 3 -42 39 -92 80 -316 255 -678 414 -1093 478 -151 23 -469 33 -614 19z
m1430 -1053 c-10 -9 -11 -8 -5 6 3 10 9 15 12 12 3 -3 0 -11 -7 -18z m-1463
-22 c-3 -3 -9 2 -12 12 -6 14 -5 15 5 6 7 -7 10 -15 7 -18z m740 -48 c15 6 15
5 3 -11 -11 -13 -16 -14 -22 -4 -5 7 -8 18 -8 23 0 6 3 5 5 -2 3 -7 13 -9 22
-6z m-261 -19 c-3 -8 -6 -5 -6 6 -1 11 2 17 5 13 3 -3 4 -12 1 -19z m173 -4
c0 -2 -9 -4 -21 -4 -11 0 -18 4 -14 10 5 8 35 3 35 -6z m-313 -36 c-3 -8 -6
-5 -6 6 -1 11 2 17 5 13 3 -3 4 -12 1 -19z m43 7 c-7 -9 -15 -13 -17 -11 -7 7
7 26 19 26 6 0 6 -6 -2 -15z m-60 -15 c0 -5 -5 -10 -11 -10 -5 0 -7 5 -4 10 3
6 8 10 11 10 2 0 4 -4 4 -10z"/>
<path d="M6620 6344 c-19 -2 -78 -9 -131 -14 -297 -32 -622 -138 -861 -279
-147 -86 -373 -255 -385 -287 -3 -7 26 -48 64 -91 138 -157 225 -284 314 -457
32 -62 59 -104 63 -97 4 6 18 8 31 5 33 -8 49 3 33 24 -10 14 -10 15 2 5 20
-18 47 -16 54 3 5 13 3 14 -7 6 -24 -21 -48 20 -25 44 4 3 5 -2 4 -13 -5 -30
5 -36 27 -16 11 10 17 12 13 6 -10 -18 9 -16 27 2 8 8 17 11 21 8 3 -4 6 -1 6
6 0 8 6 7 16 -4 10 -9 26 -14 37 -11 11 3 29 1 39 -5 13 -7 18 -7 16 2 -2 6 6
13 17 15 11 1 32 5 48 7 15 2 27 1 27 -4 0 -5 6 -7 13 -4 25 8 87 13 87 6 0
-4 -6 -13 -12 -21 -7 -8 -4 -7 7 2 22 18 75 20 87 3 5 -6 8 -5 8 3 0 7 5 10
10 7 6 -3 10 0 10 7 0 10 3 9 10 -2 7 -12 11 -12 28 3 19 17 19 17 17 -7 -2
-18 1 -23 11 -19 8 3 12 9 9 13 -3 4 5 10 17 13 15 4 28 0 41 -14 10 -11 22
-17 28 -14 5 4 9 2 9 -3 0 -6 -7 -13 -16 -16 -17 -6 -10 -26 9 -26 7 0 6 4 -3
10 -13 8 -12 10 3 10 9 0 17 -4 17 -9 0 -11 43 -1 51 12 4 5 9 5 13 -2 4 -6 2
-11 -3 -11 -6 0 -11 -4 -11 -9 0 -5 11 -8 24 -7 14 0 22 6 19 14 -3 6 0 12 7
12 8 0 11 -11 8 -29 -3 -21 -1 -28 9 -24 7 3 20 -1 29 -8 13 -11 15 -10 12 6
-1 10 3 19 10 21 7 1 8 0 2 -3 -5 -2 9 -19 33 -37 23 -18 46 -31 51 -28 5 3
-1 9 -13 14 -12 4 -19 12 -16 18 3 5 -2 10 -12 10 -14 0 -15 2 -4 9 13 8 45
-8 35 -18 -4 -4 38 -39 53 -43 6 -2 11 1 12 5 0 8 27 37 34 37 2 0 4 -19 3
-42 -1 -38 2 -43 22 -46 13 -2 32 4 43 14 10 9 19 13 19 7 0 -5 -34 -43 -75
-84 -41 -41 -75 -78 -75 -84 0 -16 97 84 175 180 112 138 196 269 284 448 117
236 175 417 217 680 14 91 15 110 4 117 -17 11 -205 46 -320 60 -90 11 -421
21 -480 14z m-1070 -954 c6 -11 8 -20 6 -20 -3 0 -10 9 -16 20 -6 11 -8 20 -6
20 3 0 10 -9 16 -20z m84 -147 c9 -18 14 -33 12 -33 -6 0 -36 55 -36 66 0 11
5 3 24 -33z m1424 -3 c-7 -10 -14 -17 -17 -15 -4 4 18 35 25 35 2 0 -1 -9 -8
-20z m-1108 -24 c0 -2 -6 -9 -14 -15 -11 -9 -16 -9 -22 0 -4 8 -3 9 4 5 7 -4
12 -2 12 3 0 6 5 11 10 11 6 0 10 -2 10 -4z m-269 -41 c10 -37 -3 -48 -17 -15
-17 39 -17 41 -1 38 6 -2 15 -12 18 -23z m1349 21 c0 -2 -8 -10 -17 -17 -16
-13 -17 -12 -4 4 13 16 21 21 21 13z m-51 -68 c-63 -91 -81 -108 -101 -97 -16
8 -19 7 -16 -7 2 -12 -5 -18 -27 -21 l-29 -4 27 25 c23 21 32 24 48 16 13 -7
19 -7 19 0 0 5 -6 10 -12 10 -9 0 -8 3 2 9 8 6 17 8 21 5 4 -2 24 18 44 46 40
55 60 70 24 18z m-225 -67 c-2 -3 -12 3 -22 13 -16 17 -16 18 5 5 12 -7 20
-15 17 -18z"/>
<path d="M2625 6192 c-245 -110 -509 -290 -709 -482 -445 -428 -700 -1037
-700 -1675 -1 -169 18 -404 31 -391 3 3 0 44 -7 93 -15 115 -21 330 -11 418 5
46 9 57 10 32 1 -35 3 -38 24 -32 14 4 17 3 9 -3 -8 -5 -10 -19 -6 -40 6 -27
8 -29 21 -17 8 8 17 15 21 15 3 0 1 -5 -6 -12 -14 -14 -16 -32 -3 -23 5 3 11
-5 13 -17 2 -13 9 -22 15 -21 6 1 14 -5 17 -13 5 -12 2 -15 -9 -10 -9 3 -13 2
-10 -4 8 -14 45 -7 56 11 7 11 9 10 9 -5 0 -16 3 -17 12 -8 7 7 16 12 21 12 5
0 -1 -8 -14 -19 l-23 -18 49 -1 c27 -1 52 -6 55 -13 5 -7 10 -7 13 -2 8 13
-38 37 -52 29 -7 -5 -11 3 -10 21 0 15 3 22 6 15 2 -6 9 -10 14 -6 5 3 9 1 9
-4 0 -5 15 -8 33 -6 48 4 62 -3 65 -31 1 -19 -2 -23 -16 -19 -13 5 -14 4 -3
-4 12 -8 20 -9 50 -3 2 1 -2 8 -9 16 -18 22 4 19 23 -3 10 -10 14 -23 10 -27
-5 -5 0 -3 10 4 20 16 23 33 3 25 -8 -3 -17 -1 -21 5 -3 7 3 11 15 11 16 0 20
5 16 15 -8 22 3 18 23 -6 10 -12 31 -23 47 -24 29 -3 29 -3 -6 14 -21 9 -36
24 -37 36 -1 11 0 14 3 7 3 -6 10 -10 15 -6 5 3 9 -1 9 -9 0 -8 9 -17 20 -20
11 -3 20 -1 20 4 0 5 5 9 11 9 6 0 7 -5 2 -12 -4 -7 -8 -20 -8 -28 0 -8 -8
-14 -17 -14 -10 1 -15 -2 -12 -7 3 -5 0 -9 -6 -9 -6 0 -8 -5 -5 -10 4 -6 12
-4 21 5 18 18 20 18 43 6 11 -6 22 -6 32 0 12 9 12 10 -1 6 -27 -7 -41 18 -29
50 7 16 13 23 16 15 3 -7 -1 -19 -7 -27 -10 -12 -8 -15 11 -16 13 -1 27 -1 32
0 7 1 11 -15 8 -32 -1 -5 3 -6 9 -2 6 3 8 11 5 16 -7 11 8 12 19 2 4 -4 17 -8
29 -9 12 -1 29 -5 37 -8 11 -5 16 0 17 14 2 21 -11 27 -22 10 -8 -13 -25 -3
-25 13 0 7 4 6 10 -3 8 -13 10 -13 10 2 0 21 38 16 91 -11 31 -16 37 -17 54
-4 17 12 18 15 5 23 -13 9 -13 10 0 10 12 1 12 3 -2 14 -24 18 -23 21 9 23 14
0 21 -2 14 -6 -8 -5 -9 -15 -2 -32 5 -13 10 -19 10 -13 1 6 12 9 26 6 30 -5
33 12 8 42 -16 19 -16 19 -1 7 9 -7 22 -9 29 -5 9 5 10 0 5 -19 -3 -14 -2 -29
4 -32 5 -3 10 -1 10 6 0 10 3 10 12 1 9 -9 9 -15 -1 -24 -10 -11 -15 -9 -28 7
-8 11 -13 13 -9 5 3 -8 9 -23 12 -32 4 -10 15 -18 25 -18 21 0 34 16 19 25 -8
5 -7 11 1 21 9 11 8 14 -2 14 -12 0 -12 2 0 9 7 5 10 14 7 20 -4 6 -2 11 3 11
6 0 12 -10 12 -22 1 -17 2 -19 6 -5 2 9 8 17 13 17 5 0 7 -7 4 -15 -5 -11 1
-15 17 -15 19 0 21 2 9 10 -11 7 -12 10 -2 10 7 0 21 -7 29 -16 13 -13 17 -13
24 -2 6 9 9 7 9 -9 0 -20 5 -22 32 -19 17 2 37 11 45 21 7 11 13 15 13 9 0
-11 51 -36 58 -29 3 3 -1 5 -9 5 -11 0 -11 2 1 10 18 12 31 13 28 3 0 -5 4
-19 10 -33 6 -15 11 -19 11 -9 1 9 13 21 27 28 22 10 29 9 41 -6 8 -10 12 -12
8 -5 -4 7 1 12 12 13 16 0 16 1 -2 9 -19 8 -19 9 3 9 13 1 21 5 17 10 -3 5 0
13 6 17 8 5 10 -1 6 -22 -5 -27 -4 -28 9 -9 8 11 13 28 10 38 -3 15 -2 16 10
7 11 -10 11 -16 -2 -42 -9 -17 -11 -27 -6 -24 6 3 13 0 16 -6 3 -7 4 -4 1 8
-3 12 1 26 8 32 11 9 13 7 13 -10 -1 -11 6 -23 14 -26 12 -4 13 -3 3 10 -11
12 -9 19 8 39 15 16 23 20 26 11 3 -6 10 -9 16 -6 7 4 3 -2 -8 -13 -11 -11
-23 -16 -26 -10 -4 5 -9 5 -12 0 -3 -5 4 -15 16 -22 12 -8 19 -10 15 -6 -9 9
9 35 24 35 6 0 6 -6 -1 -14 -9 -11 -7 -15 9 -19 15 -4 19 -2 13 6 -19 27 6 87
35 86 14 0 14 -2 -3 -9 -11 -5 -15 -10 -10 -11 6 -1 15 -3 20 -4 6 -2 15 -3
20 -4 6 -1 3 -5 -4 -10 -9 -6 -22 -6 -33 0 -15 8 -18 6 -18 -13 0 -18 2 -20
10 -8 5 8 12 11 16 7 4 -3 3 -12 -2 -20 -5 -7 -1 -4 9 6 9 11 17 15 17 11 0
-5 5 -1 11 9 8 14 14 16 25 6 8 -6 17 -9 21 -5 3 3 2 6 -4 6 -6 0 -13 6 -16
13 -3 8 2 13 12 12 22 -1 41 -14 41 -26 0 -6 -6 -7 -12 -3 -10 6 -10 5 -1 -7
6 -8 11 -17 10 -21 -1 -3 1 -10 6 -14 4 -4 7 7 7 24 0 18 5 32 10 32 6 0 10
-5 10 -11 0 -5 5 -7 10 -4 6 4 8 11 5 16 -4 5 -1 9 4 9 6 0 11 -5 11 -11 0 -5
5 -7 10 -4 6 3 10 4 10 1 0 -3 -12 -12 -27 -21 -27 -15 -27 -15 -3 -9 14 4 34
7 45 7 11 -1 14 1 8 4 -19 7 -16 22 5 21 9 0 25 3 35 7 13 5 16 3 12 -7 -7
-16 21 -45 32 -34 4 4 1 11 -7 17 -13 8 -13 10 0 19 22 14 33 12 26 -5 -3 -8
-1 -14 4 -12 5 1 15 -7 23 -17 14 -18 14 -18 19 2 4 14 2 19 -7 16 -7 -3 -16
0 -21 7 -4 7 -2 15 4 17 7 2 10 8 6 13 -8 14 20 11 35 -3 10 -11 11 -9 5 6 -5
13 -4 17 3 13 6 -4 14 -1 17 5 3 7 3 2 -1 -12 -5 -23 -5 -24 12 -10 17 13 18
13 13 -1 -6 -17 17 -20 40 -5 7 4 18 3 25 -2 9 -8 13 -3 14 18 2 22 -2 28 -12
23 -8 -3 -13 -9 -10 -13 3 -4 -2 -11 -11 -14 -27 -11 -27 0 1 22 14 11 26 24
26 29 1 16 9 16 9 -1 0 -11 4 -14 12 -10 8 5 9 2 5 -9 -8 -20 4 -29 23 -16 10
6 11 9 3 9 -7 0 -13 7 -13 15 0 8 5 15 11 15 5 0 8 -4 5 -9 -4 -5 -2 -11 3
-13 5 -1 11 -12 13 -23 3 -22 -16 -27 -47 -12 -18 9 -18 8 -7 -6 16 -19 51
-18 71 1 12 12 12 15 1 22 -11 7 -11 12 1 27 13 16 13 17 -3 4 -12 -9 -18 -10
-18 -2 0 6 7 14 15 17 13 5 15 49 17 293 2 158 5 4 8 -344 l5 -630 3 625 2
625 -66 70 c-209 222 -334 397 -458 641 -112 223 -199 490 -227 700 -6 49 -14
99 -18 111 l-6 22 -60 -27z m-1348 -1724 c-3 -7 -5 -2 -5 12 0 14 2 19 5 13 2
-7 2 -19 0 -25z m-26 -171 c-9 -9 -10 -5 -7 13 6 36 8 37 13 16 3 -10 0 -23
-6 -29z m4 -47 c3 -5 1 -10 -4 -10 -6 0 -11 5 -11 10 0 6 2 10 4 10 3 0 8 -4
11 -10z m1722 -166 c0 -19 -20 -12 -23 8 -1 10 3 15 10 12 7 -3 13 -12 13 -20z
m243 6 c0 -5 -5 -10 -11 -10 -5 0 -7 5 -4 10 3 6 8 10 11 10 2 0 4 -4 4 -10z
m-30 -5 c0 -7 -30 -13 -34 -7 -3 4 4 9 15 9 10 1 19 0 19 -2z m-1460 -29 c0
-2 -7 -7 -16 -10 -8 -3 -12 -2 -9 4 6 10 25 14 25 6z m310 0 c0 -3 -4 -8 -10
-11 -5 -3 -10 -1 -10 4 0 6 5 11 10 11 6 0 10 -2 10 -4z m710 -17 c0 -6 -4 -7
-10 -4 -5 3 -10 11 -10 16 0 6 5 7 10 4 6 -3 10 -11 10 -16z m240 6 c-7 -9
-15 -13 -17 -11 -7 7 7 26 19 26 6 0 6 -6 -2 -15z m-1619 -4 c-8 -5 -10 -14
-6 -22 6 -11 5 -11 -5 -2 -14 12 -6 33 13 33 8 0 7 -3 -2 -9z m149 5 c0 -3 -4
-8 -10 -11 -5 -3 -10 -1 -10 4 0 6 5 11 10 11 6 0 10 -2 10 -4z m780 -21 c0
-8 -2 -15 -4 -15 -2 0 -6 7 -10 15 -3 8 -1 15 4 15 6 0 10 -7 10 -15z m-690
-15 c-19 -12 -30 -12 -30 -1 0 10 31 20 40 14 2 -2 -2 -8 -10 -13z m120 10 c0
-5 -2 -10 -4 -10 -3 0 -8 5 -11 10 -3 6 -1 10 4 10 6 0 11 -4 11 -10z m106
-10 c8 0 14 -8 14 -17 0 -14 -2 -15 -9 -4 -5 7 -13 11 -18 8 -5 -3 -9 4 -10
16 0 12 1 16 4 10 3 -7 11 -13 19 -13z m52 2 c6 -18 -15 -14 -22 4 -4 10 -1
14 6 12 6 -2 14 -10 16 -16z m46 2 c3 -8 2 -12 -4 -9 -6 3 -10 10 -10 16 0 14
7 11 14 -7z m74 -9 c-3 -3 -9 2 -12 12 -6 14 -5 15 5 6 7 -7 10 -15 7 -18z
m416 6 c3 -5 -1 -11 -9 -15 -9 -3 -15 0 -15 9 0 16 16 20 24 6z m130 0 c3 -5
-5 -8 -18 -7 -13 0 -22 4 -19 9 6 10 31 9 37 -2z m-184 -11 c-12 -8 -13 -11
-1 -19 8 -5 9 -11 3 -15 -5 -3 -13 1 -16 10 -10 26 -7 34 12 34 14 0 15 -2 2
-10z m-483 -25 c0 -8 -6 -15 -14 -15 -14 0 -17 12 -6 23 11 11 20 8 20 -8z
m133 4 c0 -6 7 -9 15 -6 8 4 17 2 20 -3 10 -16 -32 -11 -45 5 -9 10 -9 15 -1
15 6 0 11 -5 11 -11z m555 1 c-3 -5 -18 -10 -33 -9 l-27 1 25 8 c35 11 42 11
35 0z"/>
<path d="M7555 6162 c-47 -408 -248 -883 -507 -1194 -23 -28 -36 -52 -32 -59
4 -7 3 -9 -3 -6 -14 9 -75 -61 -67 -75 4 -6 3 -8 -3 -5 -5 3 -44 -29 -87 -72
l-77 -78 3 -474 c2 -261 6 -510 9 -554 3 -44 6 40 7 188 1 181 5 267 13 267 6
0 8 -9 4 -20 -6 -18 -4 -19 19 -10 28 10 37 -3 11 -17 -10 -6 -11 -13 -5 -23
7 -11 10 -11 10 -2 0 7 5 10 10 7 6 -3 10 -1 10 4 0 6 6 11 14 11 8 0 22 7 30
16 13 12 16 12 16 2 0 -8 -5 -19 -11 -25 -8 -8 -7 -13 2 -18 8 -5 10 -4 5 3
-5 8 0 12 13 12 10 0 28 3 38 7 10 3 15 3 11 -2 -4 -4 -1 -14 7 -21 7 -8 15
-18 17 -24 7 -21 36 1 32 23 -2 12 -2 16 2 9 3 -6 11 -9 16 -6 7 4 8 2 4 -4
-4 -7 -1 -12 6 -12 9 0 10 -2 2 -8 -9 -5 -7 -11 3 -21 14 -13 15 -11 11 17 -4
29 -2 32 24 32 21 0 29 -6 34 -24 3 -14 12 -27 20 -30 11 -4 12 -2 4 14 -14
25 -13 30 5 30 9 0 15 -7 13 -16 -2 -10 5 -18 15 -20 13 -2 15 1 8 10 -8 9 -1
16 27 29 37 16 37 16 14 -3 -13 -11 -20 -25 -16 -31 3 -6 0 -15 -7 -20 -11 -6
-11 -11 -1 -21 9 -9 15 -9 25 1 10 10 8 11 -8 6 -20 -7 -20 -6 -1 9 22 18 41
21 31 6 -3 -5 0 -7 7 -5 8 3 15 18 16 32 1 15 6 31 11 36 6 6 8 1 4 -13 -4
-16 -2 -21 8 -18 7 2 16 15 20 29 7 24 7 24 8 -3 1 -16 6 -28 12 -28 5 0 8 4
4 9 -8 14 35 25 47 13 7 -7 5 -10 -7 -8 -10 1 -27 -6 -37 -16 -19 -19 -25 -44
-8 -33 5 3 19 -1 31 -9 12 -8 28 -12 35 -9 10 4 12 0 7 -13 -7 -18 6 -14 37
12 22 18 33 18 42 -3 6 -13 7 -11 5 9 -3 16 1 29 9 32 8 3 14 13 14 22 0 15 2
15 21 -2 16 -14 24 -16 38 -7 16 10 18 9 14 -7 -4 -15 -1 -18 16 -13 11 3 19
9 16 13 -3 5 4 6 15 3 24 -6 26 -19 4 -27 -8 -3 -12 -11 -8 -17 4 -7 13 -4 26
9 16 16 18 23 9 41 -7 11 -8 21 -3 21 5 0 14 -11 20 -25 15 -32 15 -38 2 -30
-5 3 -10 1 -10 -4 0 -6 3 -11 8 -12 55 -6 55 -6 40 5 -14 10 -12 13 9 23 20
10 23 10 13 -2 -7 -8 -7 -15 -1 -19 5 -4 12 -2 16 4 3 5 18 7 32 4 15 -4 24
-3 20 2 -3 6 3 11 14 11 13 1 19 -5 19 -18 0 -12 7 -19 20 -19 11 0 20 -7 20
-16 0 -8 5 -12 10 -9 7 4 7 11 2 18 -10 13 -12 51 -3 41 3 -3 6 -10 6 -16 0
-6 10 -14 22 -19 17 -6 21 -5 16 7 -3 7 0 14 6 14 6 0 11 -4 11 -10 0 -5 5
-10 12 -10 6 0 4 8 -6 19 -17 19 -17 19 3 14 12 -3 21 -9 21 -14 0 -5 7 -9 15
-9 8 0 15 -5 15 -11 0 -5 -5 -7 -11 -3 -8 4 -8 0 0 -15 7 -11 17 -21 24 -21 7
0 6 4 -3 10 -8 5 -10 10 -4 10 7 0 9 10 6 25 -2 14 -8 22 -12 20 -5 -3 -12 0
-16 6 -5 8 -3 9 6 4 10 -6 12 -3 7 11 -6 17 -6 17 5 3 7 -9 20 -14 28 -12 10
3 11 2 4 -4 -7 -5 -8 -16 -3 -28 8 -22 9 -22 15 17 2 14 0 29 -6 33 -13 8 -13
25 1 25 5 0 7 -4 4 -10 -3 -5 -1 -10 4 -10 6 0 11 -8 11 -17 1 -17 1 -17 14 0
12 15 14 16 20 2 3 -8 1 -15 -4 -15 -6 0 -10 -5 -10 -11 0 -8 5 -8 15 1 8 7
13 16 10 20 -6 10 23 35 32 27 3 -4 -2 -9 -11 -13 -9 -3 -13 -10 -10 -15 3 -5
10 -7 15 -4 5 3 6 -1 3 -9 -3 -8 1 -27 10 -43 8 -15 15 -22 16 -15 0 10 5 10
20 2 11 -6 20 -8 20 -5 0 13 -29 35 -47 36 -10 0 -13 3 -5 6 6 2 10 9 6 14 -9
15 8 10 28 -8 13 -11 18 -12 18 -3 0 10 3 10 15 0 8 -7 12 -17 8 -23 -3 -6 -1
-7 6 -3 6 4 9 12 6 17 -4 5 1 9 10 9 12 0 15 6 10 20 -4 11 -2 20 4 20 6 0 11
-5 11 -11 0 -5 4 -8 9 -5 5 3 7 15 4 26 -3 12 0 20 6 20 7 0 9 -4 6 -10 -14
-22 7 -30 42 -15 28 12 39 13 47 4 8 -9 8 -10 -1 -5 -7 4 -13 3 -13 -3 0 -6
-8 -7 -17 -4 -16 6 -16 5 -4 -10 8 -10 11 -20 8 -24 -4 -3 -9 2 -13 11 -9 22
-31 20 -45 -5 -9 -17 -8 -20 3 -16 7 2 12 11 10 18 -2 9 3 8 16 -4 10 -9 30
-17 43 -17 14 0 31 -6 38 -12 10 -11 11 -10 6 5 -4 9 -2 17 4 17 6 0 8 7 5 15
-4 8 -10 12 -15 9 -5 -3 -6 -10 -3 -16 5 -8 1 -9 -10 -5 -10 4 -20 7 -22 7 -2
0 -4 5 -4 11 0 6 6 9 12 7 7 -3 19 1 26 9 8 7 18 10 24 7 7 -5 9 0 6 14 -4 15
-2 19 8 15 17 -6 17 -9 2 -36 -13 -26 -19 -85 -9 -92 4 -2 7 6 6 18 -3 30 12
57 32 57 15 0 15 -2 -1 -13 -18 -13 -18 -14 -1 -14 10 0 20 9 23 19 2 10 12
18 21 18 9 0 12 -3 6 -8 -17 -12 -15 -30 3 -27 9 1 16 9 14 17 -1 9 4 18 11
21 10 4 13 -2 11 -19 -2 -20 0 -23 11 -14 10 9 20 7 40 -6 23 -15 25 -15 19 0
-3 9 -12 16 -20 16 -8 0 -14 5 -14 11 0 5 -5 7 -12 3 -7 -4 -8 -3 -4 5 6 9 11
9 21 1 9 -8 17 -7 28 5 9 8 18 11 21 6 4 -5 1 -11 -5 -13 -7 -2 -10 -11 -7
-18 3 -11 8 -9 17 7 9 19 8 28 -6 50 l-18 28 33 -23 c29 -21 47 -42 22 -27 -5
3 -10 0 -10 -9 0 -8 -3 -23 -6 -33 -4 -12 4 -8 22 12 15 17 25 22 21 13 -3
-10 -2 -20 3 -23 6 -4 10 1 10 10 0 9 9 28 20 42 11 14 20 21 20 15 0 -6 8
-13 18 -15 11 -3 7 -7 -15 -12 -33 -8 -41 -19 -23 -30 6 -3 10 -1 10 5 0 6 4
9 9 5 5 -3 12 -1 16 4 10 17 45 8 45 -12 0 -10 5 -15 10 -12 6 3 10 1 10 -6 0
-7 3 -10 6 -7 8 9 -15 48 -40 71 -12 10 -14 15 -6 11 22 -12 79 -14 85 -3 4 5
18 7 33 3 24 -5 25 -4 11 8 -15 12 -15 15 0 28 8 8 22 14 30 12 12 -3 13 11 7
85 -4 48 -9 117 -11 153 l-4 65 11 -60 c7 -35 12 -174 12 -330 1 -195 3 -251
9 -200 14 120 1 505 -21 630 -41 225 -94 397 -184 598 -213 474 -633 906
-1103 1132 -178 86 -163 84 -170 17z m-675 -1416 c0 -2 -8 -10 -17 -17 -16
-13 -17 -12 -4 4 13 16 21 21 21 13z m2117 -348 c-3 -7 -5 -2 -5 12 0 14 2 19
5 13 2 -7 2 -19 0 -25z m-2190 -235 c-3 -10 -5 -2 -5 17 0 19 2 27 5 18 2 -10
2 -26 0 -35z m0 -45 c-3 -8 -6 -5 -6 6 -1 11 2 17 5 13 3 -3 4 -12 1 -19z
m2160 -30 c-3 -8 -6 -5 -6 6 -1 11 2 17 5 13 3 -3 4 -12 1 -19z m-1933 6 c9
-3 16 -10 16 -16 0 -5 -4 -7 -9 -3 -5 3 -12 -4 -16 -15 -4 -11 -11 -18 -16
-15 -5 4 -2 13 7 22 12 13 13 17 2 24 -15 10 -6 12 16 3z m-67 -19 c0 -8 -7
-15 -15 -15 -12 0 -12 3 -2 15 7 8 13 15 15 15 1 0 2 -7 2 -15z m-67 1 c0 -3
-4 -8 -10 -11 -5 -3 -10 -1 -10 4 0 6 5 11 10 11 6 0 10 -2 10 -4z m203 -20
c4 -10 1 -13 -8 -9 -8 3 -12 9 -9 14 7 12 11 11 17 -5z m1806 -7 c-23 -14 -2
-21 23 -9 22 12 22 11 6 -5 -20 -22 -47 -13 -45 13 1 12 6 18 15 15 11 -5 11
-7 1 -14z m-1330 -3 c9 -11 9 -16 -1 -22 -7 -4 -10 -4 -6 1 4 4 3 14 -3 22 -6
7 -9 13 -6 13 2 0 10 -6 16 -14z m51 0 c0 -2 -8 -10 -17 -17 -16 -13 -17 -12
-4 4 13 16 21 21 21 13z m-600 -32 c0 -8 -4 -12 -10 -9 -5 3 -10 10 -10 16 0
5 5 9 10 9 6 0 10 -7 10 -16z m424 5 c-2 -4 0 -10 6 -14 14 -9 13 -28 -2 -23
-18 6 -29 45 -13 45 8 0 12 -4 9 -8z m57 2 c-8 -5 -10 -14 -5 -22 6 -11 5 -12
-8 -2 -8 7 -18 10 -21 6 -4 -3 -7 -1 -7 5 0 11 16 20 40 21 12 1 13 -1 1 -8z
m154 -1 c3 -5 1 -10 -4 -10 -6 0 -11 5 -11 10 0 6 2 10 4 10 3 0 8 -4 11 -10z
m76 1 c-13 -8 -13 -12 0 -27 13 -16 12 -16 -8 -3 -26 16 -29 25 -10 32 21 9
33 7 18 -2z m194 -21 c11 2 25 -31 18 -42 -7 -14 -23 -9 -17 5 3 8 -2 20 -11
27 -8 7 -15 20 -14 29 0 13 2 13 8 -2 4 -10 11 -18 16 -17z m335 14 c0 -2 -9
-4 -21 -4 -11 0 -18 4 -14 10 5 8 35 3 35 -6z m365 7 c-3 -5 3 -12 12 -14 14
-4 13 -5 -4 -6 -23 -1 -30 9 -16 22 9 10 15 8 8 -2z m120 -1 c3 -5 1 -10 -4
-10 -6 0 -11 5 -11 10 0 6 2 10 4 10 3 0 8 -4 11 -10z m30 0 c3 -5 1 -10 -4
-10 -6 0 -11 5 -11 10 0 6 2 10 4 10 3 0 8 -4 11 -10z m-1501 -18 c2 -4 -7 -8
-22 -9 -24 -2 -24 -1 -7 7 11 5 21 9 22 9 1 1 4 -3 7 -7z m590 -4 c-3 -4 -9
-8 -15 -8 -5 0 -9 4 -9 8 0 5 7 9 15 9 8 0 12 -4 9 -9z m-400 -19 c8 7 16 8
19 4 3 -4 -6 -16 -18 -25 -23 -17 -24 -17 -30 2 -5 15 -11 17 -30 10 -23 -9
-35 -5 -35 12 0 5 9 6 20 3 13 -4 20 -2 20 6 0 8 7 5 20 -6 15 -14 23 -15 34
-6z m346 11 c-8 -5 -19 -10 -25 -10 -5 0 -3 5 5 10 8 5 20 10 25 10 6 0 3 -5
-5 -10z m77 -20 c-1 -21 -10 -18 -13 5 -1 8 2 15 6 15 5 0 8 -9 7 -20z m379
-7 c-2 -2 -16 -1 -32 3 -25 6 -26 8 -9 14 18 7 51 -7 41 -17z"/>
<path d="M4640 6205 c0 -2 19 -14 43 -26 66 -34 257 -162 325 -219 34 -28 62
-48 62 -43 0 4 -12 17 -27 28 -15 11 -49 38 -77 61 -52 41 -142 101 -252 167
-60 36 -74 42 -74 32z"/>
<path d="M4944 6174 c3 -9 6 -17 6 -20 0 -2 7 -1 15 2 12 5 12 8 0 20 -18 19
-29 18 -21 -2z"/>
<path d="M4910 6110 c0 -5 5 -10 10 -10 6 0 10 5 10 10 0 6 -4 10 -10 10 -5 0
-10 -4 -10 -10z"/>
<path d="M4878 6103 c7 -3 16 -2 19 1 4 3 -2 6 -13 5 -11 0 -14 -3 -6 -6z"/>
<path d="M5031 6078 c0 -13 3 -17 6 -10 2 6 10 9 16 5 7 -4 6 1 -2 10 -18 22
-21 21 -20 -5z"/>
<path d="M5005 6080 c3 -5 8 -10 11 -10 2 0 4 5 4 10 0 6 -5 10 -11 10 -5 0
-7 -4 -4 -10z"/>
<path d="M5126 6001 c-4 -6 2 -18 13 -28 11 -9 17 -21 14 -26 -3 -6 -1 -7 5
-3 11 6 8 14 -24 64 -1 2 -5 -1 -8 -7z"/>
<path d="M5099 5887 c26 -28 31 -32 31 -19 0 4 -13 16 -28 26 l-27 19 24 -26z"/>
<path d="M5084 5618 c-70 -74 -160 -191 -233 -303 -71 -109 -161 -273 -161
-294 0 -6 37 -29 83 -52 110 -56 209 -125 282 -199 33 -33 64 -60 69 -60 5 0
44 34 88 75 85 82 170 141 286 199 l72 36 -46 92 c-79 156 -193 323 -337 491
-28 31 -53 57 -56 57 -4 0 -25 -19 -47 -42z"/>
<path d="M6375 5190 c-3 -5 1 -10 9 -10 9 0 16 5 16 10 0 6 -4 10 -9 10 -6 0
-13 -4 -16 -10z"/>
<path d="M4440 5190 c-8 -26 -7 -41 2 -32 6 6 8 16 5 24 -3 7 -6 11 -7 8z"/>
<path d="M5880 5160 c0 -6 7 -10 15 -10 8 0 15 2 15 4 0 2 -7 6 -15 10 -8 3
-15 1 -15 -4z"/>
<path d="M3700 5140 c0 -5 7 -7 15 -4 8 4 15 8 15 10 0 2 -7 4 -15 4 -8 0 -15
-4 -15 -10z"/>
<path d="M4023 5133 c26 -2 68 -2 95 0 26 2 4 3 -48 3 -52 0 -74 -1 -47 -3z"/>
<path d="M6078 5133 c6 -2 18 -2 25 0 6 3 1 5 -13 5 -14 0 -19 -2 -12 -5z"/>
<path d="M6153 5133 c20 -2 54 -2 75 0 20 2 3 4 -38 4 -41 0 -58 -2 -37 -4z"/>
<path d="M3906 5121 c-4 -5 3 -7 14 -4 23 6 26 13 6 13 -8 0 -17 -4 -20 -9z"/>
<path d="M4178 5123 c7 -3 16 -2 19 1 4 3 -2 6 -13 5 -11 0 -14 -3 -6 -6z"/>
<path d="M6008 5123 c12 -2 30 -2 40 0 9 3 -1 5 -23 4 -22 0 -30 -2 -17 -4z"/>
<path d="M6288 5123 c6 -2 18 -2 25 0 6 3 1 5 -13 5 -14 0 -19 -2 -12 -5z"/>
<path d="M4268 5113 c6 -2 18 -2 25 0 6 3 1 5 -13 5 -14 0 -19 -2 -12 -5z"/>
<path d="M5888 5103 c7 -3 16 -2 19 1 4 3 -2 6 -13 5 -11 0 -14 -3 -6 -6z"/>
<path d="M6360 5106 c0 -2 9 -6 20 -9 11 -3 18 -1 14 4 -5 9 -34 13 -34 5z"/>
<path d="M4378 5093 c7 -3 16 -2 19 1 4 3 -2 6 -13 5 -11 0 -14 -3 -6 -6z"/>
<path d="M5848 5093 c7 -3 16 -2 19 1 4 3 -2 6 -13 5 -11 0 -14 -3 -6 -6z"/>
<path d="M4428 5083 c7 -3 16 -2 19 1 4 3 -2 6 -13 5 -11 0 -14 -3 -6 -6z"/>
<path d="M6410 5086 c0 -2 7 -7 16 -10 8 -3 12 -2 9 4 -6 10 -25 14 -25 6z"/>
<path d="M5735 5073 c-31 -7 -40 -21 -11 -16 15 3 29 9 32 14 3 5 4 8 2 8 -2
-1 -12 -3 -23 -6z"/>
<path d="M3729 5023 l-24 -28 28 24 c25 23 32 31 24 31 -2 0 -14 -12 -28 -27z"/>
<path d="M3422 4921 c13 -16 30 -32 38 -36 8 -3 -1 10 -19 29 -42 44 -51 46
-19 7z"/>
<path d="M3544 4864 c-18 -14 -18 -15 4 -4 12 6 22 13 22 15 0 8 -5 6 -26 -11z"/>
<path d="M3705 4786 c-37 -16 -70 -52 -84 -89 -8 -19 -11 -293 -11 -853 0
-898 -2 -873 56 -911 24 -15 59 -19 248 -25 242 -7 330 -16 481 -47 253 -53
524 -171 696 -303 l37 -28 58 43 c143 104 293 178 472 233 228 69 386 92 702
103 224 8 238 11 265 68 13 28 15 139 13 877 -3 841 -3 845 -24 873 -30 40
-74 63 -133 70 l-51 6 0 -816 0 -817 -22 -14 c-15 -8 -67 -16 -143 -20 -446
-24 -814 -158 -1099 -402 l-39 -33 -56 48 c-167 145 -406 262 -659 325 -167
41 -344 66 -478 66 -45 0 -77 5 -90 14 -20 15 -19 -94 -24 1564 l0 82 -42 0
c-24 -1 -56 -7 -73 -14z"/>
<path d="M4505 4156 c-54 -24 -78 -60 -86 -129 -15 -116 14 -189 83 -215 70
-27 142 8 174 85 21 49 18 146 -6 193 -34 66 -104 95 -165 66z"/>
<path d="M5631 4148 c-64 -43 -76 -70 -76 -163 0 -93 13 -120 75 -162 58 -40
135 -21 177 44 27 42 26 191 -3 229 -52 70 -118 90 -173 52z"/>
<path d="M1245 4079 c-4 -6 -5 -12 -2 -15 2 -3 7 2 10 11 7 17 1 20 -8 4z"/>
<path d="M1270 4055 c0 -9 -6 -12 -17 -9 -17 5 -17 5 0 -6 13 -9 21 -8 32 3 8
8 11 17 8 21 -11 11 -23 6 -23 -9z"/>
<path d="M6945 4020 c3 -5 10 -10 16 -10 5 0 9 5 9 10 0 6 -7 10 -16 10 -8 0
-12 -4 -9 -10z"/>
<path d="M3306 4004 c-11 -7 -18 -16 -15 -18 2 -2 13 2 23 10 11 7 18 16 15
18 -2 2 -13 -2 -23 -10z"/>
<path d="M1480 4006 c0 -2 7 -7 16 -10 8 -3 12 -2 9 4 -6 10 -25 14 -25 6z"/>
<path d="M3070 3994 c0 -8 5 -12 10 -9 6 3 10 10 10 16 0 5 -4 9 -10 9 -5 0
-10 -7 -10 -16z"/>
<path d="M3255 3999 c-4 -6 -5 -12 -2 -15 2 -3 7 2 10 11 7 17 1 20 -8 4z"/>
<path d="M7110 4000 c19 -13 30 -13 30 0 0 6 -10 10 -22 10 -19 0 -20 -2 -8
-10z"/>
<path d="M8960 4000 c13 -9 13 -12 -2 -21 -10 -5 -18 -14 -18 -20 0 -5 9 -1
21 10 21 19 19 41 -4 41 -7 0 -6 -4 3 -10z"/>
<path d="M1526 3984 c-5 -14 -4 -15 9 -4 17 14 19 20 6 20 -5 0 -12 -7 -15
-16z"/>
<path d="M3365 3990 c-3 -5 -1 -10 4 -10 6 0 11 5 11 10 0 6 -2 10 -4 10 -3 0
-8 -4 -11 -10z"/>
<path d="M6970 3988 c0 -4 4 -8 9 -8 6 0 12 4 15 8 3 5 -1 9 -9 9 -8 0 -15 -4
-15 -9z"/>
<path d="M2905 3980 c3 -5 8 -10 11 -10 2 0 4 5 4 10 0 6 -5 10 -11 10 -5 0
-7 -4 -4 -10z"/>
<path d="M7036 3973 c-6 -14 -5 -15 5 -6 7 7 10 15 7 18 -3 3 -9 -2 -12 -12z"/>
<path d="M7318 3983 c7 -3 16 -2 19 1 4 3 -2 6 -13 5 -11 0 -14 -3 -6 -6z"/>
<path d="M7550 3976 c0 -8 -3 -23 -6 -33 -5 -17 -5 -17 6 0 11 17 36 25 26 8
-3 -5 1 -11 9 -14 9 -4 12 -1 8 9 -4 10 0 12 11 8 9 -3 13 -11 10 -16 -4 -6
-1 -9 7 -6 8 3 14 11 14 19 0 14 -4 15 -51 18 -14 0 -22 5 -19 11 3 6 1 10 -4
10 -6 0 -11 -6 -11 -14z"/>
<path d="M2880 3970 c0 -5 -6 -7 -14 -4 -8 3 -17 1 -20 -4 -3 -6 2 -13 11 -16
9 -4 20 -1 25 6 9 15 10 28 3 28 -3 0 -5 -4 -5 -10z"/>
<path d="M7011 3964 c0 -11 3 -14 6 -6 3 7 2 16 -1 19 -3 4 -6 -2 -5 -13z"/>
<path d="M7100 3969 c0 -5 5 -7 10 -4 6 3 10 8 10 11 0 2 -4 4 -10 4 -5 0 -10
-5 -10 -11z"/>
<path d="M1415 3960 c-3 -5 -2 -10 4 -10 5 0 13 5 16 10 3 6 2 10 -4 10 -5 0
-13 -4 -16 -10z"/>
<path d="M1660 3957 c0 -8 6 -14 14 -14 8 0 12 6 9 14 -3 7 -9 13 -14 13 -5 0
-9 -6 -9 -13z"/>
<path d="M1967 3963 c-4 -3 -7 -11 -7 -17 0 -6 5 -5 12 2 6 6 9 14 7 17 -3 3
-9 2 -12 -2z"/>
<path d="M2123 3963 c3 -5 -7 -17 -21 -27 -22 -17 -25 -17 -19 -3 5 14 4 15
-14 4 -16 -10 -17 -13 -4 -15 8 -2 12 -9 9 -15 -4 -7 5 -1 19 12 15 14 27 20
27 15 0 -10 20 17 20 29 0 4 -5 7 -11 7 -5 0 -8 -3 -6 -7z"/>
<path d="M2226 3962 c-3 -6 3 -12 13 -15 25 -6 71 3 71 14 0 13 -37 11 -45 -1
-5 -8 -11 -8 -20 0 -8 7 -16 7 -19 2z"/>
<path d="M2432 3954 c10 -10 20 -16 22 -13 3 3 -5 11 -17 18 -21 13 -21 12 -5
-5z"/>
<path d="M3018 3963 c6 -2 18 -2 25 0 6 3 1 5 -13 5 -14 0 -19 -2 -12 -5z"/>
<path d="M3080 3960 c-8 -5 -12 -11 -10 -14 3 -2 14 2 24 10 22 15 10 19 -14
4z"/>
<path d="M8910 3959 c0 -5 5 -7 10 -4 6 3 10 8 10 11 0 2 -4 4 -10 4 -5 0 -10
-5 -10 -11z"/>
<path d="M7792 3944 c-7 -8 -8 -14 -3 -14 10 0 25 19 20 25 -2 1 -10 -3 -17
-11z"/>
<path d="M7843 3946 c3 -8 1 -16 -5 -18 -6 -2 -5 -8 3 -15 11 -9 14 -5 16 18
1 16 -3 29 -8 29 -6 0 -9 -6 -6 -14z"/>
<path d="M8806 3952 c-3 -5 1 -9 9 -9 8 0 12 4 9 9 -3 4 -7 8 -9 8 -2 0 -6 -4
-9 -8z"/>
<path d="M2635 3940 c-3 -5 -1 -10 4 -10 6 0 11 5 11 10 0 6 -2 10 -4 10 -3 0
-8 -4 -11 -10z"/>
<path d="M7105 3940 c-3 -5 -1 -10 4 -10 6 0 11 5 11 10 0 6 -2 10 -4 10 -3 0
-8 -4 -11 -10z"/>
<path d="M7377 3939 c7 -7 15 -10 18 -7 3 3 -2 9 -12 12 -14 6 -15 5 -6 -5z"/>
<path d="M2735 3930 c-3 -5 -1 -10 4 -10 6 0 11 5 11 10 0 6 -2 10 -4 10 -3 0
-8 -4 -11 -10z"/>
<path d="M2376 3915 c-9 -26 -7 -32 5 -12 6 10 9 21 6 23 -2 3 -7 -2 -11 -11z"/>
<path d="M8600 3919 c0 -5 5 -7 10 -4 6 3 10 8 10 11 0 2 -4 4 -10 4 -5 0 -10
-5 -10 -11z"/>
<path d="M1749 3903 c-13 -16 -12 -17 4 -4 9 7 17 15 17 17 0 8 -8 3 -21 -13z"/>
<path d="M2707 3909 c7 -7 15 -10 18 -7 3 3 -2 9 -12 12 -14 6 -15 5 -6 -5z"/>
<path d="M8386 3903 c-6 -14 -5 -15 5 -6 7 7 10 15 7 18 -3 3 -9 -2 -12 -12z"/>
<path d="M1806 3883 c-6 -14 -5 -15 5 -6 7 7 10 15 7 18 -3 3 -9 -2 -12 -12z"/>
<path d="M4791 3724 c-28 -35 -26 -52 7 -105 138 -216 433 -239 607 -47 63 70
75 100 54 136 -35 61 -89 54 -126 -18 -60 -116 -203 -161 -322 -101 -40 21
-111 95 -111 116 0 20 -35 45 -63 45 -16 0 -33 -10 -46 -26z"/>
<path d="M9012 3680 c0 -19 2 -27 5 -17 2 9 2 25 0 35 -3 9 -5 1 -5 -18z"/>
<path d="M9002 3615 c0 -16 2 -22 5 -12 2 9 2 23 0 30 -3 6 -5 -1 -5 -18z"/>
<path d="M1252 3610 c0 -14 2 -19 5 -12 2 6 2 18 0 25 -3 6 -5 1 -5 -13z"/>
<path d="M8992 3550 c0 -14 2 -19 5 -12 2 6 2 18 0 25 -3 6 -5 1 -5 -13z"/>
<path d="M6793 3495 c0 -33 2 -45 4 -27 2 18 2 45 0 60 -2 15 -4 0 -4 -33z"/>
<path d="M1272 3510 c0 -14 2 -19 5 -12 2 6 2 18 0 25 -3 6 -5 1 -5 -13z"/>
<path d="M1281 3464 c0 -11 3 -14 6 -6 3 7 2 16 -1 19 -3 4 -6 -2 -5 -13z"/>
<path d="M3451 3344 c0 -11 3 -14 6 -6 3 7 2 16 -1 19 -3 4 -6 -2 -5 -13z"/>
</g>
</svg>
